HIERARCHY
ROOT root_translation_joint
{
	OFFSET	0	0	0
	CHANNELS 6 Xposition Yposition Zposition Zrotation Xrotation Yrotation
	JOINT head_joint
	{
		OFFSET	0	0.4982	0
		CHANNELS 3  Zrotation Xrotation Yrotation
		JOINT middleleftshoulder_joint
		{
			OFFSET	0	0	0
			CHANNELS 3  Zrotation Xrotation Yrotation
			JOINT MiddleLeftUpperLimb_x_joint
			{
				OFFSET	-0.1891	0	-0.0795
				CHANNELS 3  Zrotation Xrotation Yrotation
				JOINT MiddleLeftLimb_joint
				{
					OFFSET	-0.4456	0.0015	0.1781
					CHANNELS 3  Zrotation Xrotation Yrotation
					JOINT MiddleLeftLowerLimb_joint
					{
						OFFSET	-0.3928	-0.0167	-0.3044
						CHANNELS 3  Zrotation Xrotation Yrotation
						JOINT MiddleLeftEffector_x_joint
						{
							OFFSET	-0.4343	-0.054	-0.1597
							CHANNELS 3  Zrotation Xrotation Yrotation
							JOINT Middleleft_foot_endeffector_joint
							{
								OFFSET	-0.024924	-0.097428	0.001788
								CHANNELS 3  Zrotation Xrotation Yrotation
								End Site
								{
									OFFSET	-0.0001239	-0.000484324	8.88832e-06
								}
							}
							JOINT Middleleft_foot_cp_1_joint
							{
								OFFSET	-0.05	0.02	-0.005
								CHANNELS 3  Zrotation Xrotation Yrotation
								End Site
								{
									OFFSET	-0.00046225	0.0001849	-4.6225e-05
								}
							}
							JOINT Middleleft_foot_cp_2_joint
							{
								OFFSET	-0.12	0.02	-0.005
								CHANNELS 3  Zrotation Xrotation Yrotation
								End Site
								{
									OFFSET	-0.000492781	8.21302e-05	-2.05325e-05
								}
							}
							JOINT Middleleft_foot_cp_3_joint
							{
								OFFSET	-0.12	-0.08	-0.005
								CHANNELS 3  Zrotation Xrotation Yrotation
								End Site
								{
									OFFSET	-0.000415775	-0.000277184	-1.7324e-05
								}
							}
							JOINT Middleleft_foot_cp_4_joint
							{
								OFFSET	-0.05	-0.08	-0.005
								CHANNELS 3  Zrotation Xrotation Yrotation
								End Site
								{
									OFFSET	-0.000264628	-0.000423405	-2.64628e-05
								}
							}
						}
					}
				}
			}
		}
		JOINT frontleftshoulder_joint
		{
			OFFSET	0	0	0
			CHANNELS 3  Zrotation Xrotation Yrotation
			JOINT FrontLeftUpperLimb_x_joint
			{
				OFFSET	-0.1891	0	-0.0795
				CHANNELS 3  Zrotation Xrotation Yrotation
				JOINT FrontLeftLimb_joint
				{
					OFFSET	-0.4456	0.0015	0.1781
					CHANNELS 3  Zrotation Xrotation Yrotation
					JOINT FrontLeftLowerLimb_joint
					{
						OFFSET	-0.3928	-0.0167	-0.3044
						CHANNELS 3  Zrotation Xrotation Yrotation
						JOINT FrontLeftEffector_x_joint
						{
							OFFSET	-0.4343	-0.054	-0.1597
							CHANNELS 3  Zrotation Xrotation Yrotation
							JOINT Frontleft_foot_endeffector_joint
							{
								OFFSET	-0.1086	-0.0059	-0.0138
								CHANNELS 3  Zrotation Xrotation Yrotation
								End Site
								{
									OFFSET	-0.000495293	-2.69082e-05	-6.29377e-05
								}
							}
							JOINT Frontleft_foot_cp_1_joint
							{
								OFFSET	-0.05	0.02	-0.005
								CHANNELS 3  Zrotation Xrotation Yrotation
								End Site
								{
									OFFSET	-0.00046225	0.0001849	-4.6225e-05
								}
							}
							JOINT Frontleft_foot_cp_2_joint
							{
								OFFSET	-0.12	0.02	-0.005
								CHANNELS 3  Zrotation Xrotation Yrotation
								End Site
								{
									OFFSET	-0.000492781	8.21302e-05	-2.05325e-05
								}
							}
							JOINT Frontleft_foot_cp_3_joint
							{
								OFFSET	-0.12	-0.08	-0.005
								CHANNELS 3  Zrotation Xrotation Yrotation
								End Site
								{
									OFFSET	-0.000415775	-0.000277184	-1.7324e-05
								}
							}
							JOINT Frontleft_foot_cp_4_joint
							{
								OFFSET	-0.05	-0.08	-0.005
								CHANNELS 3  Zrotation Xrotation Yrotation
								End Site
								{
									OFFSET	-0.000264628	-0.000423405	-2.64628e-05
								}
							}
						}
					}
				}
			}
		}
		JOINT BackLeftshoulder_joint
		{
			OFFSET	0	0	0
			CHANNELS 3  Zrotation Xrotation Yrotation
			JOINT BackLeftUpperLimb_x_joint
			{
				OFFSET	-0.1891	0	-0.0795
				CHANNELS 3  Zrotation Xrotation Yrotation
				JOINT BackLeftLimb_joint
				{
					OFFSET	-0.4456	0.0015	0.1781
					CHANNELS 3  Zrotation Xrotation Yrotation
					JOINT BackLeftLowerLimb_joint
					{
						OFFSET	-0.3928	-0.0167	-0.3044
						CHANNELS 3  Zrotation Xrotation Yrotation
						JOINT BackLeftEffector_x_joint
						{
							OFFSET	-0.4343	-0.054	-0.1597
							CHANNELS 3  Zrotation Xrotation Yrotation
							JOINT BackLeft_foot_endeffector_joint
							{
								OFFSET	-0.024924	-0.097428	0.001788
								CHANNELS 3  Zrotation Xrotation Yrotation
								End Site
								{
									OFFSET	-0.0001239	-0.000484324	8.88832e-06
								}
							}
							JOINT BackLeft_foot_cp_1_joint
							{
								OFFSET	-0.05	0.02	-0.005
								CHANNELS 3  Zrotation Xrotation Yrotation
								End Site
								{
									OFFSET	-0.00046225	0.0001849	-4.6225e-05
								}
							}
							JOINT BackLeft_foot_cp_2_joint
							{
								OFFSET	-0.12	0.02	-0.005
								CHANNELS 3  Zrotation Xrotation Yrotation
								End Site
								{
									OFFSET	-0.000492781	8.21302e-05	-2.05325e-05
								}
							}
							JOINT BackLeft_foot_cp_3_joint
							{
								OFFSET	-0.12	-0.08	-0.005
								CHANNELS 3  Zrotation Xrotation Yrotation
								End Site
								{
									OFFSET	-0.000415775	-0.000277184	-1.7324e-05
								}
							}
							JOINT BackLeft_foot_cp_4_joint
							{
								OFFSET	-0.05	-0.08	-0.005
								CHANNELS 3  Zrotation Xrotation Yrotation
								End Site
								{
									OFFSET	-0.000264628	-0.000423405	-2.64628e-05
								}
							}
						}
					}
				}
			}
		}
		JOINT BackRightshoulder_joint
		{
			OFFSET	0	0	0
			CHANNELS 3  Zrotation Xrotation Yrotation
			JOINT BackRightUpperLimb_x_joint
			{
				OFFSET	-0.1891	0	-0.0795
				CHANNELS 3  Zrotation Xrotation Yrotation
				JOINT BackRightLimb_joint
				{
					OFFSET	-0.4456	0.0015	0.1781
					CHANNELS 3  Zrotation Xrotation Yrotation
					JOINT BackRightLowerLimb_joint
					{
						OFFSET	-0.3928	-0.0167	-0.3044
						CHANNELS 3  Zrotation Xrotation Yrotation
						JOINT BackRightEffector_x_joint
						{
							OFFSET	-0.4343	-0.054	-0.1597
							CHANNELS 3  Zrotation Xrotation Yrotation
							JOINT BackRight_foot_endeffector_joint
							{
								OFFSET	-0.024924	-0.097428	0.001788
								CHANNELS 3  Zrotation Xrotation Yrotation
								End Site
								{
									OFFSET	-0.0001239	-0.000484324	8.88832e-06
								}
							}
							JOINT BackRight_foot_cp_1_joint
							{
								OFFSET	-0.05	0.02	-0.005
								CHANNELS 3  Zrotation Xrotation Yrotation
								End Site
								{
									OFFSET	-0.00046225	0.0001849	-4.6225e-05
								}
							}
							JOINT BackRight_foot_cp_2_joint
							{
								OFFSET	-0.12	0.02	-0.005
								CHANNELS 3  Zrotation Xrotation Yrotation
								End Site
								{
									OFFSET	-0.000492781	8.21302e-05	-2.05325e-05
								}
							}
							JOINT BackRight_foot_cp_3_joint
							{
								OFFSET	-0.12	-0.08	-0.005
								CHANNELS 3  Zrotation Xrotation Yrotation
								End Site
								{
									OFFSET	-0.000415775	-0.000277184	-1.7324e-05
								}
							}
							JOINT BackRight_foot_cp_4_joint
							{
								OFFSET	-0.05	-0.08	-0.005
								CHANNELS 3  Zrotation Xrotation Yrotation
								End Site
								{
									OFFSET	-0.000264628	-0.000423405	-2.64628e-05
								}
							}
						}
					}
				}
			}
		}
		JOINT MiddleRightshoulder_joint
		{
			OFFSET	0	0	0
			CHANNELS 3  Zrotation Xrotation Yrotation
			JOINT MiddleRightUpperLimb_x_joint
			{
				OFFSET	-0.1891	0	-0.0795
				CHANNELS 3  Zrotation Xrotation Yrotation
				JOINT MiddleRightLimb_joint
				{
					OFFSET	-0.4456	0.0015	0.1781
					CHANNELS 3  Zrotation Xrotation Yrotation
					JOINT MiddleRightLowerLimb_joint
					{
						OFFSET	-0.3928	-0.0167	-0.3044
						CHANNELS 3  Zrotation Xrotation Yrotation
						JOINT MiddleRightEffector_x_joint
						{
							OFFSET	-0.4343	-0.054	-0.1597
							CHANNELS 3  Zrotation Xrotation Yrotation
							JOINT MiddleRight_foot_endeffector_joint
							{
								OFFSET	-0.024924	-0.097428	0.001788
								CHANNELS 3  Zrotation Xrotation Yrotation
								End Site
								{
									OFFSET	-0.0001239	-0.000484324	8.88832e-06
								}
							}
							JOINT MiddleRight_foot_cp_1_joint
							{
								OFFSET	-0.05	0.02	-0.005
								CHANNELS 3  Zrotation Xrotation Yrotation
								End Site
								{
									OFFSET	-0.00046225	0.0001849	-4.6225e-05
								}
							}
							JOINT MiddleRight_foot_cp_2_joint
							{
								OFFSET	-0.12	0.02	-0.005
								CHANNELS 3  Zrotation Xrotation Yrotation
								End Site
								{
									OFFSET	-0.000492781	8.21302e-05	-2.05325e-05
								}
							}
							JOINT MiddleRight_foot_cp_3_joint
							{
								OFFSET	-0.12	-0.08	-0.005
								CHANNELS 3  Zrotation Xrotation Yrotation
								End Site
								{
									OFFSET	-0.000415775	-0.000277184	-1.7324e-05
								}
							}
							JOINT MiddleRight_foot_cp_4_joint
							{
								OFFSET	-0.05	-0.08	-0.005
								CHANNELS 3  Zrotation Xrotation Yrotation
								End Site
								{
									OFFSET	-0.000264628	-0.000423405	-2.64628e-05
								}
							}
						}
					}
				}
			}
		}
		JOINT FrontRightshoulder_joint
		{
			OFFSET	0	0	0
			CHANNELS 3  Zrotation Xrotation Yrotation
			JOINT FrontRightUpperLimb_x_joint
			{
				OFFSET	-0.1891	0	-0.0795
				CHANNELS 3  Zrotation Xrotation Yrotation
				JOINT FrontRightLimb_joint
				{
					OFFSET	-0.4456	0.0015	0.1781
					CHANNELS 3  Zrotation Xrotation Yrotation
					JOINT FrontRightLowerLimb_joint
					{
						OFFSET	-0.3928	-0.0167	-0.3044
						CHANNELS 3  Zrotation Xrotation Yrotation
						JOINT FrontRightEffector_x_joint
						{
							OFFSET	-0.4343	-0.054	-0.1597
							CHANNELS 3  Zrotation Xrotation Yrotation
							JOINT FrontRight_foot_endeffector_joint
							{
								OFFSET	-0.024924	-0.097428	0.001788
								CHANNELS 3  Zrotation Xrotation Yrotation
								End Site
								{
									OFFSET	-0.0001239	-0.000484324	8.88832e-06
								}
							}
							JOINT FrontRight_foot_cp_1_joint
							{
								OFFSET	-0.05	0.02	-0.005
								CHANNELS 3  Zrotation Xrotation Yrotation
								End Site
								{
									OFFSET	-0.00046225	0.0001849	-4.6225e-05
								}
							}
							JOINT FrontRight_foot_cp_2_joint
							{
								OFFSET	-0.12	0.02	-0.005
								CHANNELS 3  Zrotation Xrotation Yrotation
								End Site
								{
									OFFSET	-0.000492781	8.21302e-05	-2.05325e-05
								}
							}
							JOINT FrontRight_foot_cp_3_joint
							{
								OFFSET	-0.12	-0.08	-0.005
								CHANNELS 3  Zrotation Xrotation Yrotation
								End Site
								{
									OFFSET	-0.000415775	-0.000277184	-1.7324e-05
								}
							}
							JOINT FrontRight_foot_cp_4_joint
							{
								OFFSET	-0.05	-0.08	-0.005
								CHANNELS 3  Zrotation Xrotation Yrotation
								End Site
								{
									OFFSET	-0.000264628	-0.000423405	-2.64628e-05
								}
							}
						}
					}
				}
			}
		}
	}
}
MOTION
Frames:	9
Frame Time: 1
-0.445423	3.38485	4.85744	-101.134	32.0765	-67.4104	-0	0	-0	-0	0	-0	5.7277	19.6223	-21.9447	-0	0	-14.9472	-0	0	8.69142	-6.88911	-19.9755	11.3705	-0.0572958	0	-0	-0	0	-0	-0	0	-0	-0	0	-0	-0	0	-0	-45	0	-0	-15.4698	-21.319	-13.6856	-0	0	-14.7264	-0	0	30.2075	-49.6095	-70.9408	34.7604	-0.0572958	0	-0	-0	0	-0	-0	0	-0	-0	0	-0	-0	0	-0	45	0	-0	12.8864	18.3513	-6.36202	-0	0	-50.2664	-0	0	22.6344	-16.6644	-33.2253	10.294	-0.0572958	0	-0	-0	0	-0	-0	0	-0	-0	0	-0	-0	0	-0	135	0	-0	-8.00391	-23.0635	14.7201	-0	0	0.358019	-0	0	-30.4528	-85.4748	-60.0542	-79.7997	-0.0572958	0	-0	-0	0	-0	-0	0	-0	-0	0	-0	-0	0	-0	180	0	-0	2.60999	0.15151	86.5367	-0	0	-73.4925	-0	0	-39.192	-9.42248	-15.6607	41.3614	-0.0572958	0	-0	-0	0	-0	-0	0	-0	-0	0	-0	-0	0	-0	-135	0	-0	13.0475	6.0333	1.13496	-0	0	-3.75291	-0	0	-22.8538	-26.8455	-39.0161	-38.1007	-0.0572958	0	-0	-0	0	-0	-0	0	-0	-0	0	-0	-0	0	-0
-0.438657	3.3809	4.95713	-101.448	34.7631	-67.7243	-0	0	-0	-0	0	-0	-23.9247	-20.9186	-27.8376	-0	0	-8.32038	-0	0	3.67759	-60.9566	-71.3438	-14.087	-0.0572958	0	-0	-0	0	-0	-0	0	-0	-0	0	-0	-0	0	-0	-45	0	-0	-9.51014	-26.072	-20.2187	-0	0	-7.01441	-0	0	27.6106	-50.7541	-72.9149	36.3257	-0.0572958	0	-0	-0	0	-0	-0	0	-0	-0	0	-0	-0	0	-0	45	0	-0	14.6047	19.9845	-13.2925	-0	0	-35.5157	-0	0	21.2672	-20.7731	-32.9876	2.2966	-0.0572958	0	-0	-0	0	-0	-0	0	-0	-0	0	-0	-0	0	-0	135	0	-0	-20.0006	-23.9681	4.4153	-0	0	-54.3461	-0	0	-2.08219	-65.6919	-56.8455	-63.6911	-0.0572958	0	-0	-0	0	-0	-0	0	-0	-0	0	-0	-0	0	-0	180	0	-0	0.13645	-0.37167	97.6421	-0	0	-81.7854	-0	0	-46.9294	-6.59108	-14.6944	45.4753	-0.0572958	0	-0	-0	0	-0	-0	0	-0	-0	0	-0	-0	0	-0	-135	0	-0	7.04295	4.25921	-0.871077	-0	0	13.9175	-0	0	-11.9638	-26.8455	-39.0161	-38.1007	-0.0572958	0	-0	-0	0	-0	-0	0	-0	-0	0	-0	-0	0	-0
-0.438657	3.3809	4.95713	-101.448	34.7631	-67.7243	-0	0	-0	-0	0	-0	33.0382	21.7404	-20.1009	-0	0	-2.77959	-0	0	-22.4743	-11.2871	-33.8473	20.8567	-0.0572958	0	-0	-0	0	-0	-0	0	-0	-0	0	-0	-0	0	-0	-45	0	-0	-9.5769	-26.2053	-20.3801	-0	0	-6.80566	-0	0	27.6326	-50.7661	-72.9724	36.8129	-0.0572958	0	-0	-0	0	-0	-0	0	-0	-0	0	-0	-0	0	-0	45	0	-0	14.6273	19.9993	-13.3587	-0	0	-35.4928	-0	0	21.3601	-20.7627	-33.0138	2.53259	-0.0572958	0	-0	-0	0	-0	-0	0	-0	-0	0	-0	-0	0	-0	135	0	-0	-20.0629	-24.019	4.38456	-0	0	-54.3461	-0	0	-2.08414	-65.7992	-56.8625	-63.7933	-0.0572958	0	-0	-0	0	-0	-0	0	-0	-0	0	-0	-0	0	-0	180	0	-0	0.123756	-0.376008	97.7169	-0	0	-81.9387	-0	0	-46.9646	-6.46885	-14.7026	45.6413	-0.0572958	0	-0	-0	0	-0	-0	0	-0	-0	0	-0	-0	0	-0	-135	0	-0	7.04295	4.25921	-0.871077	-0	0	13.9175	-0	0	-11.9638	-26.8455	-39.0161	-38.1007	-0.0572958	0	-0	-0	0	-0	-0	0	-0	-0	0	-0	-0	0	-0
-0.438657	3.3809	4.95713	-101.448	34.7631	-67.7243	-0	0	-0	-0	0	-0	32.7764	21.5572	-19.4828	-0	0	-2.2062	-0	0	-24.5294	-12.5796	-33.3705	15.5931	-0.0572958	0	-0	-0	0	-0	-0	0	-0	-0	0	-0	-0	0	-0	-45	0	-0	-8.35841	-23.589	-17.2388	-0	0	-10.7906	-0	0	27.0756	-50.5541	-71.8159	27.164	-0.0572958	0	-0	-0	0	-0	-0	0	-0	-0	0	-0	-0	0	-0	45	0	-0	13.6553	19.203	-11.7952	-0	0	-35.8588	-0	0	19.3292	-20.9638	-32.8651	-2.89527	-0.0572958	0	-0	-0	0	-0	-0	0	-0	-0	0	-0	-0	0	-0	135	0	-0	-18.1702	-22.387	5.3203	-0	0	-54.3232	-0	0	-2.03486	-61.7007	-56.0816	-60.3933	-0.0572958	0	-0	-0	0	-0	-0	0	-0	-0	0	-0	-0	0	-0	180	0	-0	-0.291278	12.399	1.47333	-0	0	-23.0502	-0	0	12.2883	-15.66	-28.6545	9.76655	-0.0572958	0	-0	-0	0	-0	-0	0	-0	-0	0	-0	-0	0	-0	-135	0	-0	7.04295	4.25921	-0.871077	-0	0	13.9175	-0	0	-11.9638	-26.8455	-39.0161	-38.1007	-0.0572958	0	-0	-0	0	-0	-0	0	-0	-0	0	-0	-0	0	-0
-0.43189	3.37695	5.05683	-101.754	37.4511	-68.0306	-0	0	-0	-0	0	-0	28.7902	17.4607	-24.6051	-0	0	-8.25268	-0	0	6.42982	-7.56553	-22.9129	10.0351	-0.0572958	0	-0	-0	0	-0	-0	0	-0	-0	0	-0	-0	0	-0	-45	0	-0	-4.38889	-31.5368	-29.603	-0	0	7.11019	-0	0	22.1266	-54.4423	-77.4716	40.9084	-0.0572958	0	-0	-0	0	-0	-0	0	-0	-0	0	-0	-0	0	-0	45	0	-0	16.1772	21.069	-22.0851	-0	0	-17.6532	-0	0	19.0153	-26.2408	-31.9246	-3.38027	-0.0572958	0	-0	-0	0	-0	-0	0	-0	-0	0	-0	-0	0	-0	135	0	-0	-25.1567	-32.9252	-6.97143	-0	0	-27.1905	-0	0	12.1409	-46.5308	-52.9984	-53.0104	-0.0572958	0	-0	-0	0	-0	-0	0	-0	-0	0	-0	-0	0	-0	180	0	-0	-0.425825	12.4586	3.67742	-0	0	-33.7872	-0	0	15.6851	-11.4233	-28.7729	21.6177	-0.0572958	0	-0	-0	0	-0	-0	0	-0	-0	0	-0	-0	0	-0	-135	0	-0	0.519318	17.6752	-1.75606	-0	0	-13.7446	-0	0	15.6679	-2.22762	-14.3371	15.6121	-0.0572958	0	-0	-0	0	-0	-0	0	-0	-0	0	-0	-0	0	-0
-0.43189	3.37695	5.05683	-101.754	37.4511	-68.0306	-0	0	-0	-0	0	-0	28.1832	16.8609	-23.3083	-0	0	-8.44881	-0	0	4.19193	-7.73979	-23.4125	5.33863	-0.0572958	0	-0	-0	0	-0	-0	0	-0	-0	0	-0	-0	0	-0	-45	0	-0	-3.21668	-29.546	-27.1964	-0	0	3.81291	-0	0	22.3983	-54.5985	-75.9229	33.9021	-0.0572958	0	-0	-0	0	-0	-0	0	-0	-0	0	-0	-0	0	-0	45	0	-0	15.8431	20.7896	-21.2387	-0	0	-17.9623	-0	0	18.0087	-26.2303	-31.557	-5.90729	-0.0572958	0	-0	-0	0	-0	-0	0	-0	-0	0	-0	-0	0	-0	135	0	-0	-24.932	-32.6882	-6.89757	-0	0	-27.237	-0	0	12.2593	-46.6703	-53.1559	-52.5798	-0.0572958	0	-0	-0	0	-0	-0	0	-0	-0	0	-0	-0	0	-0	180	0	-0	-0.4869	12.4404	4.50376	-0	0	-34.1593	-0	0	14.5609	-11.8165	-28.7078	19.0723	-0.0572958	0	-0	-0	0	-0	-0	0	-0	-0	0	-0	-0	0	-0	-135	0	-0	0.185759	16.7787	-0.639993	-0	0	-14.2027	-0	0	13.8338	-1.97474	-15.4384	11.9647	-0.0572958	0	-0	-0	0	-0	-0	0	-0	-0	0	-0	-0	0	-0
-0.425124	3.373	5.15652	-102.054	40.1403	-68.3299	-0	0	-0	-0	0	-0	-6.112	-10.7709	-8.50423	-0	0	-60.2633	-0	0	24.9083	-76.276	-80.8322	-18.4553	-0.0572958	0	-0	-0	0	-0	-0	0	-0	-0	0	-0	-0	0	-0	-45	0	-0	2.01845	-34.1336	-37.7293	-0	0	22.6957	-0	0	11.8644	-75.9379	-83.4072	19.2549	-0.0572958	0	-0	-0	0	-0	-0	0	-0	-0	0	-0	-0	0	-0	45	0	-0	17.2214	21.1332	-32.2423	-0	0	5.24513	-0	0	12.1103	-34.5787	-28.652	-11.3419	-0.0572958	0	-0	-0	0	-0	-0	0	-0	-0	0	-0	-0	0	-0	135	0	-0	-19.2415	-6.91156	7.10745	-0	0	-41.7199	-0	0	-37.0818	-61.7427	-48.8034	-70.1567	-0.0572958	0	-0	-0	0	-0	-0	0	-0	-0	0	-0	-0	0	-0	180	0	-0	-1.30445	12.3402	6.02757	-0	0	-42.8544	-0	0	16.2515	-8.19594	-29.1203	26.7802	-0.0572958	0	-0	-0	0	-0	-0	0	-0	-0	0	-0	-0	0	-0	-135	0	-0	4.24383	15.446	5.1731	-0	0	-29.8503	-0	0	16.4878	1.16155	-11.1532	22.7618	-0.0572958	0	-0	-0	0	-0	-0	0	-0	-0	0	-0	-0	0	-0
-0.425124	3.373	5.15652	-102.054	40.1403	-68.3299	-0	0	-0	-0	0	-0	-5.99983	-10.6142	-8.47398	-0	0	-60.7861	-0	0	24.6538	-75.881	-80.4425	-19.4118	-0.0572958	0	-0	-0	0	-0	-0	0	-0	-0	0	-0	-0	0	-0	-45	0	-0	8.70467	38.4481	0.0330783	-0	0	-13.4154	-0	0	-14.2622	-15.7091	-27.4422	3.00009	-0.0572958	0	-0	-0	0	-0	-0	0	-0	-0	0	-0	-0	0	-0	45	0	-0	17.2469	21.0509	-32.3678	-0	0	4.94354	-0	0	11.9067	-34.5119	-28.5746	-11.6708	-0.0572958	0	-0	-0	0	-0	-0	0	-0	-0	0	-0	-0	0	-0	135	0	-0	-18.9438	-6.7649	7.02465	-0	0	-42.0664	-0	0	-37.2272	-61.5752	-48.8143	-69.9105	-0.0572958	0	-0	-0	0	-0	-0	0	-0	-0	0	-0	-0	0	-0	180	0	-0	-1.31119	12.3416	6.52023	-0	0	-42.6561	-0	0	16.0824	-8.39142	-29.1001	26.0822	-0.0572958	0	-0	-0	0	-0	-0	0	-0	-0	0	-0	-0	0	-0	-135	0	-0	4.17722	15.372	5.13127	-0	0	-30.1255	-0	0	15.9401	1.20323	-11.3247	21.8812	-0.0572958	0	-0	-0	0	-0	-0	0	-0	-0	0	-0	-0	0	-0
-0.425124	3.373	5.15652	-102.054	40.1403	-68.3299	-0	0	-0	-0	0	-0	-6.17695	-10.914	-9.04029	-0	0	-60.3146	-0	0	24.9334	-76.475	-81.2822	-16.9973	-0.0572958	0	-0	-0	0	-0	-0	0	-0	-0	0	-0	-0	0	-0	-45	0	-0	9.12137	38.9912	-0.717189	-0	0	-13.9249	-0	0	-12.7639	-15.7197	-27.8075	6.73327	-0.0572958	0	-0	-0	0	-0	-0	0	-0	-0	0	-0	-0	0	-0	45	0	-0	6.91337	17.394	-19.43	-0	0	-17.0292	-0	0	11.5168	-10.8596	-27.5963	9.56419	-0.0572958	0	-0	-0	0	-0	-0	0	-0	-0	0	-0	-0	0	-0	135	0	-0	-19.4589	-7.12061	6.90397	-0	0	-41.9915	-0	0	-37.2781	-61.7929	-48.7649	-70.3582	-0.0572958	0	-0	-0	0	-0	-0	0	-0	-0	0	-0	-0	0	-0	180	0	-0	-1.35419	12.2385	6.07246	-0	0	-42.5483	-0	0	16.727	-7.93747	-29.2032	27.5861	-0.0572958	0	-0	-0	0	-0	-0	0	-0	-0	0	-0	-0	0	-0	-135	0	-0	4.26597	15.5549	4.58404	-0	0	-29.9719	-0	0	16.8056	1.18216	-11.0341	23.6725	-0.0572958	0	-0	-0	0	-0	-0	0	-0	-0	0	-0	-0	0	-0
